<?xml version="1.0" ?><svg xmlns="http://www.w3.org/2000/svg" width="24" height="24" viewBox="0 0 24 24" fill="none"><path d="M13.0001 6.5C13.0001 5.94772 12.5524 5.5 12.0001 5.5C11.4478 5.5 11.0001 5.94772 11.0001 6.5V12.4854L7.91884 14.6863C7.46943 15.0073 7.36533 15.6318 7.68634 16.0812C8.00735 16.5307 8.6319 16.6347 9.08132 16.3137L12.5813 13.8137C12.8441 13.626 13.0001 13.323 13.0001 13V6.5Z" fill="black"/><path fill-rule="evenodd" clip-rule="evenodd" d="M12 2C6.47715 2 2 6.47715 2 12C2 17.5228 6.47715 22 12 22C17.5228 22 22 17.5228 22 12C22 6.47715 17.5228 2 12 2ZM4 12C4 7.58172 7.58172 4 12 4C16.4183 4 20 7.58172 20 12C20 16.4183 16.4183 20 12 20C7.58172 20 4 16.4183 4 12Z" fill="black"/></svg>